<svg xmlns="http://www.w3.org/2000/svg" xmlns:xlink="http://www.w3.org/1999/xlink" version="1.1" width="422px"
    height="422px" viewBox="-0.5 -0.5 422 422" <defs>
    <linearGradient id="Gradient">
        <stop class="stop1" offset="0%" stop-color="#0074f8" />
        <stop class="stop2" offset="100%" stop-color="#8c00ff" />
    </linearGradient>
    </defs>
    <ellipse cx="210" cy="210" rx="210" ry="210" fill="url(#Gradient)" stroke="none" />
    <path d="M 205 75 L 275.51 101.12" fill="none" stroke="#fff" />
    <ellipse cx="190" cy="75" rx="15" ry="15" fill="none" stroke="#fff" />
    <path d="M 297.5 117.99 L 327.4 170.23" fill="none" stroke="#fff" />
    <ellipse cx="290" cy="105" rx="15" ry="15" fill="none" stroke="#fff" transform="rotate(15,290,105)" />
    <path d="M 315.23 187.6 L 95 225" fill="none" stroke="#fff" />
    <ellipse cx="330" cy="185" rx="15" ry="15" fill="none" stroke="#fff" transform="rotate(-10,330,185)" />
    <path d="M 80 210 L 100 140" fill="none" stroke="#fff" />
    <path d="M 90.61 235.61 L 129.39 294.39" fill="none" stroke="#fff" />
    <ellipse cx="80" cy="225" rx="15" ry="15" fill="none" stroke="#fff" />
    <path d="M 150.61 315.61 L 215 335" fill="none" stroke="#fff" />
    <ellipse cx="140" cy="305" rx="15" ry="15" fill="none" stroke="#fff" />
    <path d="M 110.61 114.39 L 175 75" fill="none" stroke="#fff" />
    <ellipse cx="100" cy="125" rx="15" ry="15" fill="none" stroke="#fff" />
    <ellipse cx="320" cy="275" rx="15" ry="15" fill="none" stroke="#fff" />
    <path d="M 245 335 L 309.39 285.61" fill="none" stroke="#fff" />
    <ellipse cx="230" cy="335" rx="15" ry="15" fill="none" stroke="#fff" />
    <ellipse cx="210" cy="210" rx="185" ry="185" fill="none" stroke="#fff" />

</svg>